<svg width="1920" height="1080" viewBox="0 0 1920 1080" fill="none" xmlns="http://www.w3.org/2000/svg">
<rect width="1920" height="1080" fill="white"/>
<rect width="1920" height="288" fill="#D9D9D9"/>
<path d="M57.48 128V83.2H78.664C83.6133 83.2 87.9653 84.1173 91.72 85.952C95.4747 87.7867 98.3973 90.368 100.488 93.696C102.621 97.024 103.688 100.992 103.688 105.6C103.688 110.165 102.621 114.133 100.488 117.504C98.3973 120.832 95.4747 123.413 91.72 125.248C87.9653 127.083 83.6133 128 78.664 128H57.48ZM70.152 117.888H78.152C80.712 117.888 82.9307 117.419 84.808 116.48C86.728 115.499 88.2213 114.091 89.288 112.256C90.3547 110.379 90.888 108.16 90.888 105.6C90.888 102.997 90.3547 100.779 89.288 98.944C88.2213 97.1093 86.728 95.7227 84.808 94.784C82.9307 93.8027 80.712 93.312 78.152 93.312H70.152V117.888ZM130.963 128V121.536L130.131 119.936V108.032C130.131 106.112 129.534 104.64 128.339 103.616C127.187 102.549 125.331 102.016 122.771 102.016C121.107 102.016 119.422 102.293 117.715 102.848C116.008 103.36 114.558 104.085 113.363 105.024L109.267 96.768C111.23 95.488 113.576 94.5067 116.307 93.824C119.08 93.0987 121.832 92.736 124.563 92.736C130.195 92.736 134.547 94.0373 137.619 96.64C140.734 99.2 142.291 103.232 142.291 108.736V128H130.963ZM120.723 128.576C117.95 128.576 115.603 128.107 113.683 127.168C111.763 126.229 110.291 124.949 109.267 123.328C108.286 121.707 107.795 119.893 107.795 117.888C107.795 115.755 108.328 113.92 109.395 112.384C110.504 110.805 112.19 109.611 114.451 108.8C116.712 107.947 119.635 107.52 123.219 107.52H131.411V113.856H124.883C122.92 113.856 121.534 114.176 120.723 114.816C119.955 115.456 119.571 116.309 119.571 117.376C119.571 118.443 119.976 119.296 120.787 119.936C121.598 120.576 122.707 120.896 124.115 120.896C125.438 120.896 126.632 120.576 127.699 119.936C128.808 119.253 129.619 118.229 130.131 116.864L131.795 121.344C131.155 123.733 129.896 125.547 128.019 126.784C126.184 127.979 123.752 128.576 120.723 128.576ZM162.575 128.576C159.631 128.576 156.751 128.235 153.935 127.552C151.161 126.869 148.921 126.016 147.215 124.992L150.863 116.672C152.484 117.653 154.383 118.443 156.559 119.04C158.735 119.595 160.868 119.872 162.958 119.872C165.007 119.872 166.415 119.659 167.183 119.232C167.993 118.805 168.399 118.229 168.399 117.504C168.399 116.821 168.015 116.331 167.247 116.032C166.521 115.691 165.54 115.435 164.303 115.264C163.108 115.093 161.785 114.901 160.335 114.688C158.884 114.475 157.412 114.197 155.919 113.856C154.468 113.472 153.124 112.917 151.887 112.192C150.692 111.424 149.732 110.4 149.007 109.12C148.281 107.84 147.919 106.219 147.919 104.256C147.919 102.037 148.559 100.075 149.839 98.368C151.161 96.6187 153.081 95.2533 155.599 94.272C158.116 93.248 161.188 92.736 164.815 92.736C167.247 92.736 169.7 92.992 172.175 93.504C174.692 93.9733 176.804 94.6987 178.511 95.68L174.863 103.936C173.156 102.955 171.449 102.293 169.743 101.952C168.036 101.568 166.415 101.376 164.878 101.376C162.831 101.376 161.38 101.611 160.527 102.08C159.716 102.549 159.311 103.125 159.311 103.808C159.311 104.491 159.673 105.024 160.399 105.408C161.124 105.749 162.084 106.027 163.279 106.24C164.516 106.411 165.86 106.603 167.311 106.816C168.761 106.987 170.212 107.264 171.663 107.648C173.156 108.032 174.5 108.608 175.695 109.376C176.932 110.101 177.913 111.104 178.639 112.384C179.364 113.621 179.727 115.221 179.727 117.184C179.727 119.317 179.065 121.237 177.743 122.944C176.463 124.651 174.543 126.016 171.983 127.04C169.465 128.064 166.329 128.576 162.575 128.576ZM207.559 92.736C210.247 92.736 212.679 93.2907 214.854 94.4C217.031 95.4667 218.737 97.1307 219.975 99.392C221.255 101.653 221.895 104.576 221.895 108.16V128H209.735V110.144C209.735 107.669 209.223 105.877 208.199 104.768C207.217 103.616 205.831 103.04 204.039 103.04C202.759 103.04 201.585 103.339 200.519 103.936C199.452 104.491 198.62 105.365 198.023 106.56C197.425 107.755 197.127 109.312 197.127 111.232V128H184.967V80.512H197.127V103.168L194.311 100.288C195.633 97.7707 197.447 95.8933 199.751 94.656C202.055 93.376 204.657 92.736 207.559 92.736ZM251.353 128.576C248.238 128.576 245.636 127.936 243.545 126.656C241.497 125.376 239.961 123.413 238.937 120.768C237.913 118.123 237.401 114.731 237.401 110.592C237.401 106.539 237.934 103.189 239.001 100.544C240.11 97.8987 241.71 95.936 243.801 94.656C245.892 93.376 248.409 92.736 251.353 92.736C254.51 92.736 257.369 93.4613 259.929 94.912C262.532 96.3627 264.58 98.432 266.073 101.12C267.609 103.765 268.377 106.923 268.377 110.592C268.377 114.304 267.609 117.504 266.073 120.192C264.58 122.837 262.532 124.907 259.929 126.4C257.369 127.851 254.51 128.576 251.353 128.576ZM229.529 128V80.512H241.689V99.136L241.049 110.592L241.113 122.048V128H229.529ZM248.793 118.912C250.158 118.912 251.374 118.592 252.441 117.952C253.55 117.312 254.425 116.373 255.065 115.136C255.748 113.856 256.089 112.341 256.089 110.592C256.089 108.843 255.748 107.371 255.065 106.176C254.425 104.939 253.55 104 252.441 103.36C251.374 102.72 250.158 102.4 248.793 102.4C247.428 102.4 246.19 102.72 245.081 103.36C244.014 104 243.14 104.939 242.457 106.176C241.817 107.371 241.497 108.843 241.497 110.592C241.497 112.341 241.817 113.856 242.457 115.136C243.14 116.373 244.014 117.312 245.081 117.952C246.19 118.592 247.428 118.912 248.793 118.912ZM291.437 128.576C287.64 128.576 284.269 127.808 281.325 126.272C278.381 124.736 276.056 122.624 274.349 119.936C272.685 117.205 271.853 114.091 271.853 110.592C271.853 107.093 272.685 104 274.349 101.312C276.056 98.624 278.381 96.5333 281.325 95.04C284.269 93.504 287.64 92.736 291.437 92.736C295.234 92.736 298.605 93.504 301.549 95.04C304.536 96.5333 306.861 98.624 308.525 101.312C310.189 104 311.021 107.093 311.021 110.592C311.021 114.091 310.189 117.205 308.525 119.936C306.861 122.624 304.536 124.736 301.549 126.272C298.605 127.808 295.234 128.576 291.437 128.576ZM291.437 118.912C292.845 118.912 294.082 118.592 295.149 117.952C296.258 117.312 297.133 116.373 297.773 115.136C298.413 113.856 298.733 112.341 298.733 110.592C298.733 108.843 298.413 107.371 297.773 106.176C297.133 104.939 296.258 104 295.149 103.36C294.082 102.72 292.845 102.4 291.437 102.4C290.072 102.4 288.834 102.72 287.725 103.36C286.658 104 285.784 104.939 285.101 106.176C284.461 107.371 284.141 108.843 284.141 110.592C284.141 112.341 284.461 113.856 285.101 115.136C285.784 116.373 286.658 117.312 287.725 117.952C288.834 118.592 290.072 118.912 291.437 118.912ZM337.088 128V121.536L336.256 119.936V108.032C336.256 106.112 335.659 104.64 334.464 103.616C333.312 102.549 331.456 102.016 328.896 102.016C327.232 102.016 325.547 102.293 323.84 102.848C322.133 103.36 320.683 104.085 319.488 105.024L315.392 96.768C317.355 95.488 319.701 94.5067 322.432 93.824C325.205 93.0987 327.957 92.736 330.688 92.736C336.32 92.736 340.672 94.0373 343.744 96.64C346.859 99.2 348.416 103.232 348.416 108.736V128H337.088ZM326.848 128.576C324.075 128.576 321.728 128.107 319.808 127.168C317.888 126.229 316.416 124.949 315.392 123.328C314.411 121.707 313.92 119.893 313.92 117.888C313.92 115.755 314.453 113.92 315.52 112.384C316.629 110.805 318.315 109.611 320.576 108.8C322.837 107.947 325.76 107.52 329.344 107.52H337.536V113.856H331.008C329.045 113.856 327.659 114.176 326.848 114.816C326.08 115.456 325.696 116.309 325.696 117.376C325.696 118.443 326.101 119.296 326.912 119.936C327.723 120.576 328.832 120.896 330.24 120.896C331.563 120.896 332.757 120.576 333.824 119.936C334.933 119.253 335.744 118.229 336.256 116.864L337.92 121.344C337.28 123.733 336.021 125.547 334.144 126.784C332.309 127.979 329.877 128.576 326.848 128.576ZM356.092 128V93.312H367.676V103.424L365.948 100.544C366.972 97.9413 368.636 96 370.94 94.72C373.244 93.3973 376.038 92.736 379.324 92.736V103.68C378.769 103.595 378.278 103.552 377.852 103.552C377.468 103.509 377.041 103.488 376.572 103.488C374.097 103.488 372.092 104.171 370.556 105.536C369.02 106.859 368.252 109.035 368.252 112.064V128H356.092ZM399.133 128.576C395.976 128.576 393.096 127.851 390.493 126.4C387.933 124.907 385.885 122.837 384.349 120.192C382.813 117.504 382.045 114.304 382.045 110.592C382.045 106.923 382.813 103.765 384.349 101.12C385.885 98.432 387.933 96.3627 390.493 94.912C393.096 93.4613 395.976 92.736 399.133 92.736C402.12 92.736 404.637 93.376 406.685 94.656C408.776 95.936 410.354 97.8987 411.421 100.544C412.488 103.189 413.021 106.539 413.021 110.592C413.021 114.731 412.509 118.123 411.485 120.768C410.461 123.413 408.925 125.376 406.877 126.656C404.829 127.936 402.248 128.576 399.133 128.576ZM401.693 118.912C403.058 118.912 404.274 118.592 405.341 117.952C406.45 117.312 407.325 116.373 407.965 115.136C408.605 113.856 408.925 112.341 408.925 110.592C408.925 108.843 408.605 107.371 407.965 106.176C407.325 104.939 406.45 104 405.341 103.36C404.274 102.72 403.058 102.4 401.693 102.4C400.285 102.4 399.026 102.72 397.917 103.36C396.85 104 395.997 104.939 395.357 106.176C394.717 107.371 394.397 108.843 394.397 110.592C394.397 112.341 394.717 113.856 395.357 115.136C395.997 116.373 396.85 117.312 397.917 117.952C399.026 118.592 400.285 118.912 401.693 118.912ZM409.309 128V122.048L409.373 110.592L408.733 99.136V80.512H420.893V128H409.309ZM470.254 128.896C466.712 128.896 463.427 128.341 460.398 127.232C457.411 126.08 454.808 124.459 452.59 122.368C450.414 120.277 448.707 117.824 447.47 115.008C446.232 112.149 445.614 109.013 445.614 105.6C445.614 102.187 446.232 99.072 447.47 96.256C448.707 93.3973 450.414 90.9227 452.59 88.832C454.808 86.7413 457.411 85.1413 460.398 84.032C463.427 82.88 466.712 82.304 470.254 82.304C474.392 82.304 478.083 83.0293 481.326 84.48C484.611 85.9307 487.342 88.0213 489.518 90.752L481.454 98.048C480.003 96.3413 478.403 95.04 476.654 94.144C474.947 93.248 473.027 92.8 470.894 92.8C469.059 92.8 467.374 93.0987 465.838 93.696C464.302 94.2933 462.979 95.168 461.87 96.32C460.803 97.4293 459.95 98.7733 459.31 100.352C458.712 101.931 458.414 103.68 458.414 105.6C458.414 107.52 458.712 109.269 459.31 110.848C459.95 112.427 460.803 113.792 461.87 114.944C462.979 116.053 464.302 116.907 465.838 117.504C467.374 118.101 469.059 118.4 470.894 118.4C473.027 118.4 474.947 117.952 476.654 117.056C478.403 116.16 480.003 114.859 481.454 113.152L489.518 120.448C487.342 123.136 484.611 125.227 481.326 126.72C478.083 128.171 474.392 128.896 470.254 128.896ZM510.875 128.576C507.077 128.576 503.707 127.808 500.763 126.272C497.819 124.736 495.493 122.624 493.786 119.936C492.123 117.205 491.291 114.091 491.291 110.592C491.291 107.093 492.123 104 493.786 101.312C495.493 98.624 497.819 96.5333 500.763 95.04C503.707 93.504 507.077 92.736 510.875 92.736C514.672 92.736 518.043 93.504 520.987 95.04C523.973 96.5333 526.299 98.624 527.963 101.312C529.627 104 530.459 107.093 530.459 110.592C530.459 114.091 529.627 117.205 527.963 119.936C526.299 122.624 523.973 124.736 520.987 126.272C518.043 127.808 514.672 128.576 510.875 128.576ZM510.875 118.912C512.283 118.912 513.52 118.592 514.587 117.952C515.696 117.312 516.571 116.373 517.211 115.136C517.851 113.856 518.171 112.341 518.171 110.592C518.171 108.843 517.851 107.371 517.211 106.176C516.571 104.939 515.696 104 514.587 103.36C513.52 102.72 512.283 102.4 510.875 102.4C509.509 102.4 508.272 102.72 507.163 103.36C506.096 104 505.221 104.939 504.539 106.176C503.899 107.371 503.579 108.843 503.579 110.592C503.579 112.341 503.899 113.856 504.539 115.136C505.221 116.373 506.096 117.312 507.163 117.952C508.272 118.592 509.509 118.912 510.875 118.912ZM581.276 92.736C583.964 92.736 586.353 93.2907 588.444 94.4C590.577 95.4667 592.241 97.1307 593.436 99.392C594.673 101.653 595.292 104.576 595.292 108.16V128H583.132V110.144C583.132 107.669 582.662 105.877 581.724 104.768C580.785 103.616 579.505 103.04 577.884 103.04C576.732 103.04 575.686 103.317 574.748 103.872C573.809 104.427 573.084 105.28 572.572 106.432C572.06 107.541 571.804 108.992 571.804 110.784V128H559.644V110.144C559.644 107.669 559.174 105.877 558.236 104.768C557.34 103.616 556.06 103.04 554.396 103.04C553.201 103.04 552.134 103.317 551.196 103.872C550.3 104.427 549.574 105.28 549.02 106.432C548.508 107.541 548.252 108.992 548.252 110.784V128H536.092V93.312H547.676V102.976L545.372 100.224C546.652 97.7493 548.401 95.8933 550.62 94.656C552.838 93.376 555.313 92.736 558.044 92.736C561.158 92.736 563.889 93.5467 566.236 95.168C568.625 96.7467 570.225 99.2213 571.036 102.592L567.068 101.76C568.305 98.944 570.161 96.7467 572.636 95.168C575.153 93.5467 578.033 92.736 581.276 92.736ZM621.58 128.576C617.484 128.576 613.9 127.808 610.828 126.272C607.799 124.693 605.431 122.56 603.724 119.872C602.06 117.141 601.228 114.048 601.228 110.592C601.228 107.136 602.039 104.064 603.66 101.376C605.324 98.6453 607.607 96.5333 610.508 95.04C613.409 93.504 616.673 92.736 620.3 92.736C623.713 92.736 626.828 93.44 629.644 94.848C632.46 96.2133 634.7 98.24 636.364 100.928C638.028 103.616 638.86 106.88 638.86 110.72C638.86 111.147 638.839 111.637 638.796 112.192C638.753 112.747 638.711 113.259 638.668 113.728H611.212V107.328H632.204L627.596 109.12C627.639 107.541 627.34 106.176 626.7 105.024C626.103 103.872 625.249 102.976 624.14 102.336C623.073 101.696 621.815 101.376 620.364 101.376C618.913 101.376 617.633 101.696 616.524 102.336C615.457 102.976 614.625 103.893 614.028 105.088C613.431 106.24 613.132 107.605 613.132 109.184V111.04C613.132 112.747 613.473 114.219 614.156 115.456C614.881 116.693 615.905 117.653 617.228 118.336C618.551 118.976 620.129 119.296 621.964 119.296C623.671 119.296 625.121 119.061 626.316 118.592C627.553 118.08 628.769 117.312 629.964 116.288L636.364 122.944C634.7 124.779 632.652 126.187 630.22 127.168C627.788 128.107 624.908 128.576 621.58 128.576ZM644.467 128V93.312H656.051V103.424L654.323 100.544C655.347 97.9413 657.011 96 659.315 94.72C661.619 93.3973 664.413 92.736 667.699 92.736V103.68C667.144 103.595 666.653 103.552 666.227 103.552C665.843 103.509 665.416 103.488 664.947 103.488C662.472 103.488 660.467 104.171 658.931 105.536C657.395 106.859 656.627 109.035 656.627 112.064V128H644.467ZM690.132 128.576C686.292 128.576 682.857 127.808 679.828 126.272C676.841 124.736 674.495 122.624 672.788 119.936C671.081 117.205 670.228 114.091 670.228 110.592C670.228 107.093 671.081 104 672.788 101.312C674.495 98.624 676.841 96.5333 679.828 95.04C682.857 93.504 686.292 92.736 690.132 92.736C694.057 92.736 697.449 93.568 700.308 95.232C703.167 96.896 705.193 99.2427 706.388 102.272L696.98 107.072C696.169 105.451 695.167 104.277 693.972 103.552C692.777 102.784 691.476 102.4 690.068 102.4C688.66 102.4 687.38 102.72 686.228 103.36C685.076 104 684.159 104.939 683.476 106.176C682.836 107.371 682.516 108.843 682.516 110.592C682.516 112.384 682.836 113.899 683.476 115.136C684.159 116.373 685.076 117.312 686.228 117.952C687.38 118.592 688.66 118.912 690.068 118.912C691.476 118.912 692.777 118.549 693.972 117.824C695.167 117.056 696.169 115.861 696.98 114.24L706.388 119.04C705.193 122.069 703.167 124.416 700.308 126.08C697.449 127.744 694.057 128.576 690.132 128.576ZM710.842 128V93.312H723.002V128H710.842ZM716.922 89.472C714.703 89.472 712.911 88.8533 711.546 87.616C710.18 86.3787 709.498 84.8427 709.498 83.008C709.498 81.1733 710.18 79.6373 711.546 78.4C712.911 77.1627 714.703 76.544 716.922 76.544C719.14 76.544 720.932 77.1413 722.298 78.336C723.663 79.488 724.346 80.9813 724.346 82.816C724.346 84.736 723.663 86.336 722.298 87.616C720.975 88.8533 719.183 89.472 716.922 89.472ZM752.088 128V121.536L751.256 119.936V108.032C751.256 106.112 750.659 104.64 749.464 103.616C748.312 102.549 746.456 102.016 743.896 102.016C742.232 102.016 740.547 102.293 738.84 102.848C737.133 103.36 735.683 104.085 734.488 105.024L730.392 96.768C732.355 95.488 734.701 94.5067 737.432 93.824C740.205 93.0987 742.957 92.736 745.688 92.736C751.32 92.736 755.672 94.0373 758.744 96.64C761.859 99.2 763.416 103.232 763.416 108.736V128H752.088ZM741.848 128.576C739.075 128.576 736.728 128.107 734.808 127.168C732.888 126.229 731.416 124.949 730.392 123.328C729.411 121.707 728.92 119.893 728.92 117.888C728.92 115.755 729.453 113.92 730.52 112.384C731.629 110.805 733.315 109.611 735.576 108.8C737.837 107.947 740.76 107.52 744.344 107.52H752.536V113.856H746.008C744.045 113.856 742.659 114.176 741.848 114.816C741.08 115.456 740.696 116.309 740.696 117.376C740.696 118.443 741.101 119.296 741.912 119.936C742.723 120.576 743.832 120.896 745.24 120.896C746.563 120.896 747.757 120.576 748.824 119.936C749.933 119.253 750.744 118.229 751.256 116.864L752.92 121.344C752.28 123.733 751.021 125.547 749.144 126.784C747.309 127.979 744.877 128.576 741.848 128.576ZM771.092 128V80.512H783.252V128H771.092Z" fill="black"/>
<path d="M52.44 241L64.8 213H72.6L85 241H76.76L67.08 216.88H70.2L60.52 241H52.44ZM59.2 235.56L61.24 229.72H74.92L76.96 235.56H59.2ZM101.005 218.96C102.685 218.96 104.205 219.307 105.565 220C106.925 220.667 107.992 221.707 108.765 223.12C109.565 224.533 109.965 226.36 109.965 228.6V241H102.365V229.84C102.365 228.293 102.045 227.173 101.405 226.48C100.792 225.76 99.9253 225.4 98.8053 225.4C98.0053 225.4 97.272 225.587 96.6053 225.96C95.9386 226.307 95.4186 226.853 95.0453 227.6C94.672 228.347 94.4853 229.32 94.4853 230.52V241H86.8853V219.32H94.1253V225.48L92.7253 223.68C93.552 222.107 94.6853 220.933 96.1253 220.16C97.5653 219.36 99.192 218.96 101.005 218.96ZM127.977 241V236.96L127.457 235.96V228.52C127.457 227.32 127.084 226.4 126.337 225.76C125.617 225.093 124.457 224.76 122.857 224.76C121.817 224.76 120.764 224.933 119.697 225.28C118.63 225.6 117.724 226.053 116.977 226.64L114.417 221.48C115.644 220.68 117.11 220.067 118.817 219.64C120.55 219.187 122.27 218.96 123.977 218.96C127.497 218.96 130.217 219.773 132.137 221.4C134.084 223 135.057 225.52 135.057 228.96V241H127.977ZM121.577 241.36C119.844 241.36 118.377 241.067 117.177 240.48C115.977 239.893 115.057 239.093 114.417 238.08C113.804 237.067 113.497 235.933 113.497 234.68C113.497 233.347 113.83 232.2 114.497 231.24C115.19 230.253 116.244 229.507 117.657 229C119.07 228.467 120.897 228.2 123.137 228.2H128.257V232.16H124.177C122.95 232.16 122.084 232.36 121.577 232.76C121.097 233.16 120.857 233.693 120.857 234.36C120.857 235.027 121.11 235.56 121.617 235.96C122.124 236.36 122.817 236.56 123.697 236.56C124.524 236.56 125.27 236.36 125.937 235.96C126.63 235.533 127.137 234.893 127.457 234.04L128.497 236.84C128.097 238.333 127.31 239.467 126.137 240.24C124.99 240.987 123.47 241.36 121.577 241.36ZM139.854 241V211.32H147.454V241H139.854ZM152.393 241V219.32H159.993V241H152.393ZM156.193 216.92C154.806 216.92 153.686 216.533 152.833 215.76C151.98 214.987 151.553 214.027 151.553 212.88C151.553 211.733 151.98 210.773 152.833 210C153.686 209.227 154.806 208.84 156.193 208.84C157.58 208.84 158.7 209.213 159.553 209.96C160.406 210.68 160.833 211.613 160.833 212.76C160.833 213.96 160.406 214.96 159.553 215.76C158.726 216.533 157.606 216.92 156.193 216.92ZM172.812 241.36C170.972 241.36 169.172 241.147 167.412 240.72C165.679 240.293 164.279 239.76 163.212 239.12L165.492 233.92C166.506 234.533 167.692 235.027 169.052 235.4C170.412 235.747 171.746 235.92 173.052 235.92C174.332 235.92 175.212 235.787 175.692 235.52C176.199 235.253 176.452 234.893 176.452 234.44C176.452 234.013 176.212 233.707 175.732 233.52C175.279 233.307 174.666 233.147 173.892 233.04C173.146 232.933 172.319 232.813 171.412 232.68C170.506 232.547 169.586 232.373 168.652 232.16C167.746 231.92 166.906 231.573 166.132 231.12C165.386 230.64 164.786 230 164.332 229.2C163.879 228.4 163.652 227.387 163.652 226.16C163.652 224.773 164.052 223.547 164.852 222.48C165.679 221.387 166.879 220.533 168.452 219.92C170.026 219.28 171.946 218.96 174.212 218.96C175.732 218.96 177.266 219.12 178.812 219.44C180.386 219.733 181.706 220.187 182.772 220.8L180.492 225.96C179.426 225.347 178.359 224.933 177.292 224.72C176.226 224.48 175.212 224.36 174.252 224.36C172.972 224.36 172.066 224.507 171.532 224.8C171.026 225.093 170.772 225.453 170.772 225.88C170.772 226.307 170.999 226.64 171.452 226.88C171.906 227.093 172.506 227.267 173.252 227.4C174.026 227.507 174.866 227.627 175.772 227.76C176.679 227.867 177.586 228.04 178.492 228.28C179.426 228.52 180.266 228.88 181.012 229.36C181.786 229.813 182.399 230.44 182.852 231.24C183.306 232.013 183.532 233.013 183.532 234.24C183.532 235.573 183.119 236.773 182.292 237.84C181.492 238.907 180.292 239.76 178.692 240.4C177.119 241.04 175.159 241.36 172.812 241.36ZM198.167 241.36C195.607 241.36 193.367 240.88 191.447 239.92C189.554 238.933 188.074 237.6 187.007 235.92C185.967 234.213 185.447 232.28 185.447 230.12C185.447 227.96 185.954 226.04 186.967 224.36C188.007 222.653 189.434 221.333 191.247 220.4C193.061 219.44 195.101 218.96 197.367 218.96C199.501 218.96 201.447 219.4 203.207 220.28C204.967 221.133 206.367 222.4 207.407 224.08C208.447 225.76 208.967 227.8 208.967 230.2C208.967 230.467 208.954 230.773 208.927 231.12C208.901 231.467 208.874 231.787 208.847 232.08H191.687V228.08H204.807L201.927 229.2C201.954 228.213 201.767 227.36 201.367 226.64C200.994 225.92 200.461 225.36 199.767 224.96C199.101 224.56 198.314 224.36 197.407 224.36C196.501 224.36 195.701 224.56 195.007 224.96C194.341 225.36 193.821 225.933 193.447 226.68C193.074 227.4 192.887 228.253 192.887 229.24V230.4C192.887 231.467 193.101 232.387 193.527 233.16C193.981 233.933 194.621 234.533 195.447 234.96C196.274 235.36 197.261 235.56 198.407 235.56C199.474 235.56 200.381 235.413 201.127 235.12C201.901 234.8 202.661 234.32 203.407 233.68L207.407 237.84C206.367 238.987 205.087 239.867 203.567 240.48C202.047 241.067 200.247 241.36 198.167 241.36ZM233.552 241.36C231.579 241.36 229.779 240.907 228.152 240C226.552 239.067 225.272 237.773 224.312 236.12C223.352 234.44 222.872 232.44 222.872 230.12C222.872 227.827 223.352 225.853 224.312 224.2C225.272 222.52 226.552 221.227 228.152 220.32C229.779 219.413 231.579 218.96 233.552 218.96C235.419 218.96 236.992 219.36 238.272 220.16C239.579 220.96 240.565 222.187 241.232 223.84C241.899 225.493 242.232 227.587 242.232 230.12C242.232 232.707 241.912 234.827 241.272 236.48C240.632 238.133 239.672 239.36 238.392 240.16C237.112 240.96 235.499 241.36 233.552 241.36ZM235.152 235.32C236.005 235.32 236.765 235.12 237.432 234.72C238.125 234.32 238.672 233.733 239.072 232.96C239.472 232.16 239.672 231.213 239.672 230.12C239.672 229.027 239.472 228.107 239.072 227.36C238.672 226.587 238.125 226 237.432 225.6C236.765 225.2 236.005 225 235.152 225C234.272 225 233.485 225.2 232.792 225.6C232.125 226 231.592 226.587 231.192 227.36C230.792 228.107 230.592 229.027 230.592 230.12C230.592 231.213 230.792 232.16 231.192 232.96C231.592 233.733 232.125 234.32 232.792 234.72C233.485 235.12 234.272 235.32 235.152 235.32ZM239.912 241V237.28L239.952 230.12L239.552 222.96V211.32H247.152V241H239.912ZM262.922 241.36C260.548 241.36 258.442 240.88 256.602 239.92C254.762 238.96 253.308 237.64 252.242 235.96C251.202 234.253 250.682 232.307 250.682 230.12C250.682 227.933 251.202 226 252.242 224.32C253.308 222.64 254.762 221.333 256.602 220.4C258.442 219.44 260.548 218.96 262.922 218.96C265.295 218.96 267.402 219.44 269.242 220.4C271.108 221.333 272.562 222.64 273.602 224.32C274.642 226 275.162 227.933 275.162 230.12C275.162 232.307 274.642 234.253 273.602 235.96C272.562 237.64 271.108 238.96 269.242 239.92C267.402 240.88 265.295 241.36 262.922 241.36ZM262.922 235.32C263.802 235.32 264.575 235.12 265.242 234.72C265.935 234.32 266.482 233.733 266.882 232.96C267.282 232.16 267.482 231.213 267.482 230.12C267.482 229.027 267.282 228.107 266.882 227.36C266.482 226.587 265.935 226 265.242 225.6C264.575 225.2 263.802 225 262.922 225C262.068 225 261.295 225.2 260.602 225.6C259.935 226 259.388 226.587 258.962 227.36C258.562 228.107 258.362 229.027 258.362 230.12C258.362 231.213 258.562 232.16 258.962 232.96C259.388 233.733 259.935 234.32 260.602 234.72C261.295 235.12 262.068 235.32 262.922 235.32ZM286.562 241.36C284.722 241.36 282.922 241.147 281.162 240.72C279.429 240.293 278.029 239.76 276.962 239.12L279.242 233.92C280.256 234.533 281.442 235.027 282.802 235.4C284.162 235.747 285.496 235.92 286.802 235.92C288.082 235.92 288.962 235.787 289.442 235.52C289.949 235.253 290.202 234.893 290.202 234.44C290.202 234.013 289.962 233.707 289.482 233.52C289.029 233.307 288.416 233.147 287.642 233.04C286.896 232.933 286.069 232.813 285.162 232.68C284.256 232.547 283.336 232.373 282.402 232.16C281.496 231.92 280.656 231.573 279.882 231.12C279.136 230.64 278.536 230 278.082 229.2C277.629 228.4 277.402 227.387 277.402 226.16C277.402 224.773 277.802 223.547 278.602 222.48C279.429 221.387 280.629 220.533 282.202 219.92C283.776 219.28 285.696 218.96 287.962 218.96C289.482 218.96 291.016 219.12 292.562 219.44C294.136 219.733 295.456 220.187 296.522 220.8L294.242 225.96C293.176 225.347 292.109 224.933 291.042 224.72C289.976 224.48 288.962 224.36 288.002 224.36C286.722 224.36 285.816 224.507 285.282 224.8C284.776 225.093 284.522 225.453 284.522 225.88C284.522 226.307 284.749 226.64 285.202 226.88C285.656 227.093 286.256 227.267 287.002 227.4C287.776 227.507 288.616 227.627 289.522 227.76C290.429 227.867 291.336 228.04 292.242 228.28C293.176 228.52 294.016 228.88 294.762 229.36C295.536 229.813 296.149 230.44 296.602 231.24C297.056 232.013 297.282 233.013 297.282 234.24C297.282 235.573 296.869 236.773 296.042 237.84C295.242 238.907 294.042 239.76 292.442 240.4C290.869 241.04 288.909 241.36 286.562 241.36ZM325.838 241.36C323.998 241.36 322.424 240.96 321.118 240.16C319.811 239.333 318.811 238.107 318.118 236.48C317.451 234.827 317.118 232.72 317.118 230.16C317.118 227.573 317.438 225.467 318.078 223.84C318.718 222.187 319.678 220.96 320.958 220.16C322.264 219.36 323.891 218.96 325.838 218.96C327.811 218.96 329.598 219.427 331.198 220.36C332.824 221.267 334.104 222.56 335.038 224.24C335.998 225.893 336.478 227.867 336.478 230.16C336.478 232.453 335.998 234.44 335.038 236.12C334.104 237.8 332.824 239.093 331.198 240C329.598 240.907 327.811 241.36 325.838 241.36ZM312.198 248.76V219.32H319.438V223L319.398 230.16L319.798 237.36V248.76H312.198ZM324.238 235.32C325.091 235.32 325.851 235.12 326.518 234.72C327.211 234.32 327.758 233.733 328.158 232.96C328.584 232.187 328.798 231.253 328.798 230.16C328.798 229.067 328.584 228.133 328.158 227.36C327.758 226.587 327.211 226 326.518 225.6C325.851 225.2 325.091 225 324.238 225C323.384 225 322.611 225.2 321.918 225.6C321.251 226 320.704 226.587 320.278 227.36C319.878 228.133 319.678 229.067 319.678 230.16C319.678 231.253 319.878 232.187 320.278 232.96C320.704 233.733 321.251 234.32 321.918 234.72C322.611 235.12 323.384 235.32 324.238 235.32ZM340.01 241V219.32H347.25V225.64L346.17 223.84C346.81 222.213 347.85 221 349.29 220.2C350.73 219.373 352.477 218.96 354.53 218.96V225.8C354.184 225.747 353.877 225.72 353.61 225.72C353.37 225.693 353.104 225.68 352.81 225.68C351.264 225.68 350.01 226.107 349.05 226.96C348.09 227.787 347.61 229.147 347.61 231.04V241H340.01ZM357.667 241V219.32H365.267V241H357.667ZM361.467 216.92C360.08 216.92 358.96 216.533 358.107 215.76C357.253 214.987 356.827 214.027 356.827 212.88C356.827 211.733 357.253 210.773 358.107 210C358.96 209.227 360.08 208.84 361.467 208.84C362.853 208.84 363.973 209.213 364.827 209.96C365.68 210.68 366.107 211.613 366.107 212.76C366.107 213.96 365.68 214.96 364.827 215.76C364 216.533 362.88 216.92 361.467 216.92ZM384.326 218.96C386.006 218.96 387.526 219.307 388.886 220C390.246 220.667 391.312 221.707 392.086 223.12C392.886 224.533 393.286 226.36 393.286 228.6V241H385.686V229.84C385.686 228.293 385.366 227.173 384.726 226.48C384.112 225.76 383.246 225.4 382.126 225.4C381.326 225.4 380.592 225.587 379.926 225.96C379.259 226.307 378.739 226.853 378.366 227.6C377.992 228.347 377.806 229.32 377.806 230.52V241H370.206V219.32H377.446V225.48L376.046 223.68C376.872 222.107 378.006 220.933 379.446 220.16C380.886 219.36 382.512 218.96 384.326 218.96ZM409.411 241.36C407.011 241.36 404.864 240.88 402.971 239.92C401.104 238.96 399.637 237.64 398.571 235.96C397.504 234.253 396.971 232.307 396.971 230.12C396.971 227.933 397.504 226 398.571 224.32C399.637 222.64 401.104 221.333 402.971 220.4C404.864 219.44 407.011 218.96 409.411 218.96C411.864 218.96 413.984 219.48 415.771 220.52C417.557 221.56 418.824 223.027 419.571 224.92L413.691 227.92C413.184 226.907 412.557 226.173 411.811 225.72C411.064 225.24 410.251 225 409.371 225C408.491 225 407.691 225.2 406.971 225.6C406.251 226 405.677 226.587 405.251 227.36C404.851 228.107 404.651 229.027 404.651 230.12C404.651 231.24 404.851 232.187 405.251 232.96C405.677 233.733 406.251 234.32 406.971 234.72C407.691 235.12 408.491 235.32 409.371 235.32C410.251 235.32 411.064 235.093 411.811 234.64C412.557 234.16 413.184 233.413 413.691 232.4L419.571 235.4C418.824 237.293 417.557 238.76 415.771 239.8C413.984 240.84 411.864 241.36 409.411 241.36ZM422.354 241V219.32H429.954V241H422.354ZM426.154 216.92C424.767 216.92 423.647 216.533 422.794 215.76C421.941 214.987 421.514 214.027 421.514 212.88C421.514 211.733 421.941 210.773 422.794 210C423.647 209.227 424.767 208.84 426.154 208.84C427.541 208.84 428.661 209.213 429.514 209.96C430.367 210.68 430.794 211.613 430.794 212.76C430.794 213.96 430.367 214.96 429.514 215.76C428.687 216.533 427.567 216.92 426.154 216.92ZM448.533 241.36C446.693 241.36 445.12 240.96 443.813 240.16C442.506 239.333 441.506 238.107 440.813 236.48C440.146 234.827 439.813 232.72 439.813 230.16C439.813 227.573 440.133 225.467 440.773 223.84C441.413 222.187 442.373 220.96 443.653 220.16C444.96 219.36 446.586 218.96 448.533 218.96C450.506 218.96 452.293 219.427 453.893 220.36C455.52 221.267 456.8 222.56 457.733 224.24C458.693 225.893 459.173 227.867 459.173 230.16C459.173 232.453 458.693 234.44 457.733 236.12C456.8 237.8 455.52 239.093 453.893 240C452.293 240.907 450.506 241.36 448.533 241.36ZM434.893 248.76V219.32H442.133V223L442.093 230.16L442.493 237.36V248.76H434.893ZM446.933 235.32C447.786 235.32 448.546 235.12 449.213 234.72C449.906 234.32 450.453 233.733 450.853 232.96C451.28 232.187 451.493 231.253 451.493 230.16C451.493 229.067 451.28 228.133 450.853 227.36C450.453 226.587 449.906 226 449.213 225.6C448.546 225.2 447.786 225 446.933 225C446.08 225 445.306 225.2 444.613 225.6C443.946 226 443.4 226.587 442.973 227.36C442.573 228.133 442.373 229.067 442.373 230.16C442.373 231.253 442.573 232.187 442.973 232.96C443.4 233.733 443.946 234.32 444.613 234.72C445.306 235.12 446.08 235.32 446.933 235.32ZM475.477 241V236.96L474.957 235.96V228.52C474.957 227.32 474.584 226.4 473.837 225.76C473.117 225.093 471.957 224.76 470.357 224.76C469.317 224.76 468.264 224.933 467.197 225.28C466.13 225.6 465.224 226.053 464.477 226.64L461.917 221.48C463.144 220.68 464.61 220.067 466.317 219.64C468.05 219.187 469.77 218.96 471.477 218.96C474.997 218.96 477.717 219.773 479.637 221.4C481.584 223 482.557 225.52 482.557 228.96V241H475.477ZM469.077 241.36C467.344 241.36 465.877 241.067 464.677 240.48C463.477 239.893 462.557 239.093 461.917 238.08C461.304 237.067 460.997 235.933 460.997 234.68C460.997 233.347 461.33 232.2 461.997 231.24C462.69 230.253 463.744 229.507 465.157 229C466.57 228.467 468.397 228.2 470.637 228.2H475.757V232.16H471.677C470.45 232.16 469.584 232.36 469.077 232.76C468.597 233.16 468.357 233.693 468.357 234.36C468.357 235.027 468.61 235.56 469.117 235.96C469.624 236.36 470.317 236.56 471.197 236.56C472.024 236.56 472.77 236.36 473.437 235.96C474.13 235.533 474.637 234.893 474.957 234.04L475.997 236.84C475.597 238.333 474.81 239.467 473.637 240.24C472.49 240.987 470.97 241.36 469.077 241.36ZM487.354 241V219.32H494.954V241H487.354ZM491.154 216.92C489.767 216.92 488.647 216.533 487.794 215.76C486.941 214.987 486.514 214.027 486.514 212.88C486.514 211.733 486.941 210.773 487.794 210C488.647 209.227 489.767 208.84 491.154 208.84C492.541 208.84 493.661 209.213 494.514 209.96C495.367 210.68 495.794 211.613 495.794 212.76C495.794 213.96 495.367 214.96 494.514 215.76C493.687 216.533 492.567 216.92 491.154 216.92ZM507.773 241.36C505.933 241.36 504.133 241.147 502.373 240.72C500.64 240.293 499.24 239.76 498.173 239.12L500.453 233.92C501.466 234.533 502.653 235.027 504.013 235.4C505.373 235.747 506.706 235.92 508.013 235.92C509.293 235.92 510.173 235.787 510.653 235.52C511.16 235.253 511.413 234.893 511.413 234.44C511.413 234.013 511.173 233.707 510.693 233.52C510.24 233.307 509.626 233.147 508.853 233.04C508.106 232.933 507.28 232.813 506.373 232.68C505.466 232.547 504.546 232.373 503.613 232.16C502.706 231.92 501.866 231.573 501.093 231.12C500.346 230.64 499.746 230 499.293 229.2C498.84 228.4 498.613 227.387 498.613 226.16C498.613 224.773 499.013 223.547 499.813 222.48C500.64 221.387 501.84 220.533 503.413 219.92C504.986 219.28 506.906 218.96 509.173 218.96C510.693 218.96 512.226 219.12 513.773 219.44C515.346 219.733 516.666 220.187 517.733 220.8L515.453 225.96C514.386 225.347 513.32 224.933 512.253 224.72C511.186 224.48 510.173 224.36 509.213 224.36C507.933 224.36 507.026 224.507 506.493 224.8C505.986 225.093 505.733 225.453 505.733 225.88C505.733 226.307 505.96 226.64 506.413 226.88C506.866 227.093 507.466 227.267 508.213 227.4C508.986 227.507 509.826 227.627 510.733 227.76C511.64 227.867 512.546 228.04 513.453 228.28C514.386 228.52 515.226 228.88 515.973 229.36C516.746 229.813 517.36 230.44 517.813 231.24C518.266 232.013 518.493 233.013 518.493 234.24C518.493 235.573 518.08 236.773 517.253 237.84C516.453 238.907 515.253 239.76 513.653 240.4C512.08 241.04 510.12 241.36 507.773 241.36ZM533.409 241V219.32H541.009V241H533.409ZM537.209 216.92C535.822 216.92 534.702 216.533 533.849 215.76C532.995 214.987 532.569 214.027 532.569 212.88C532.569 211.733 532.995 210.773 533.849 210C534.702 209.227 535.822 208.84 537.209 208.84C538.595 208.84 539.715 209.213 540.569 209.96C541.422 210.68 541.849 211.613 541.849 212.76C541.849 213.96 541.422 214.96 540.569 215.76C539.742 216.533 538.622 216.92 537.209 216.92ZM560.068 218.96C561.748 218.96 563.268 219.307 564.628 220C565.988 220.667 567.054 221.707 567.828 223.12C568.628 224.533 569.028 226.36 569.028 228.6V241H561.428V229.84C561.428 228.293 561.108 227.173 560.468 226.48C559.854 225.76 558.988 225.4 557.868 225.4C557.068 225.4 556.334 225.587 555.668 225.96C555.001 226.307 554.481 226.853 554.108 227.6C553.734 228.347 553.548 229.32 553.548 230.52V241H545.948V219.32H553.188V225.48L551.788 223.68C552.614 222.107 553.748 220.933 555.188 220.16C556.628 219.36 558.254 218.96 560.068 218.96ZM583.513 241.36C581.539 241.36 579.739 240.907 578.113 240C576.513 239.067 575.233 237.773 574.273 236.12C573.313 234.44 572.833 232.44 572.833 230.12C572.833 227.827 573.313 225.853 574.273 224.2C575.233 222.52 576.513 221.227 578.113 220.32C579.739 219.413 581.539 218.96 583.513 218.96C585.379 218.96 586.953 219.36 588.233 220.16C589.539 220.96 590.526 222.187 591.193 223.84C591.859 225.493 592.193 227.587 592.193 230.12C592.193 232.707 591.873 234.827 591.233 236.48C590.593 238.133 589.633 239.36 588.353 240.16C587.073 240.96 585.459 241.36 583.513 241.36ZM585.113 235.32C585.966 235.32 586.726 235.12 587.393 234.72C588.086 234.32 588.633 233.733 589.033 232.96C589.433 232.16 589.633 231.213 589.633 230.12C589.633 229.027 589.433 228.107 589.033 227.36C588.633 226.587 588.086 226 587.393 225.6C586.726 225.2 585.966 225 585.113 225C584.233 225 583.446 225.2 582.753 225.6C582.086 226 581.553 226.587 581.153 227.36C580.753 228.107 580.553 229.027 580.553 230.12C580.553 231.213 580.753 232.16 581.153 232.96C581.553 233.733 582.086 234.32 582.753 234.72C583.446 235.12 584.233 235.32 585.113 235.32ZM589.873 241V237.28L589.913 230.12L589.513 222.96V211.32H597.113V241H589.873ZM602.003 241V219.32H609.603V241H602.003ZM605.803 216.92C604.416 216.92 603.296 216.533 602.443 215.76C601.589 214.987 601.163 214.027 601.163 212.88C601.163 211.733 601.589 210.773 602.443 210C603.296 209.227 604.416 208.84 605.803 208.84C607.189 208.84 608.309 209.213 609.163 209.96C610.016 210.68 610.443 211.613 610.443 212.76C610.443 213.96 610.016 214.96 609.163 215.76C608.336 216.533 607.216 216.92 605.803 216.92ZM625.622 241.36C623.222 241.36 621.075 240.88 619.182 239.92C617.315 238.96 615.848 237.64 614.782 235.96C613.715 234.253 613.182 232.307 613.182 230.12C613.182 227.933 613.715 226 614.782 224.32C615.848 222.64 617.315 221.333 619.182 220.4C621.075 219.44 623.222 218.96 625.622 218.96C628.075 218.96 630.195 219.48 631.982 220.52C633.768 221.56 635.035 223.027 635.782 224.92L629.902 227.92C629.395 226.907 628.768 226.173 628.022 225.72C627.275 225.24 626.462 225 625.582 225C624.702 225 623.902 225.2 623.182 225.6C622.462 226 621.888 226.587 621.462 227.36C621.062 228.107 620.862 229.027 620.862 230.12C620.862 231.24 621.062 232.187 621.462 232.96C621.888 233.733 622.462 234.32 623.182 234.72C623.902 235.12 624.702 235.32 625.582 235.32C626.462 235.32 627.275 235.093 628.022 234.64C628.768 234.16 629.395 233.413 629.902 232.4L635.782 235.4C635.035 237.293 633.768 238.76 631.982 239.8C630.195 240.84 628.075 241.36 625.622 241.36ZM651.883 241V236.96L651.363 235.96V228.52C651.363 227.32 650.99 226.4 650.243 225.76C649.523 225.093 648.363 224.76 646.763 224.76C645.723 224.76 644.67 224.933 643.603 225.28C642.536 225.6 641.63 226.053 640.883 226.64L638.323 221.48C639.55 220.68 641.016 220.067 642.723 219.64C644.456 219.187 646.176 218.96 647.883 218.96C651.403 218.96 654.123 219.773 656.043 221.4C657.99 223 658.963 225.52 658.963 228.96V241H651.883ZM645.483 241.36C643.75 241.36 642.283 241.067 641.083 240.48C639.883 239.893 638.963 239.093 638.323 238.08C637.71 237.067 637.403 235.933 637.403 234.68C637.403 233.347 637.736 232.2 638.403 231.24C639.096 230.253 640.15 229.507 641.563 229C642.976 228.467 644.803 228.2 647.043 228.2H652.163V232.16H648.083C646.856 232.16 645.99 232.36 645.483 232.76C645.003 233.16 644.763 233.693 644.763 234.36C644.763 235.027 645.016 235.56 645.523 235.96C646.03 236.36 646.723 236.56 647.603 236.56C648.43 236.56 649.176 236.36 649.843 235.96C650.536 235.533 651.043 234.893 651.363 234.04L652.403 236.84C652.003 238.333 651.216 239.467 650.043 240.24C648.896 240.987 647.376 241.36 645.483 241.36ZM673.474 241.36C671.5 241.36 669.7 240.907 668.074 240C666.474 239.067 665.194 237.773 664.234 236.12C663.274 234.44 662.794 232.44 662.794 230.12C662.794 227.827 663.274 225.853 664.234 224.2C665.194 222.52 666.474 221.227 668.074 220.32C669.7 219.413 671.5 218.96 673.474 218.96C675.34 218.96 676.914 219.36 678.194 220.16C679.5 220.96 680.487 222.187 681.154 223.84C681.82 225.493 682.154 227.587 682.154 230.12C682.154 232.707 681.834 234.827 681.194 236.48C680.554 238.133 679.594 239.36 678.314 240.16C677.034 240.96 675.42 241.36 673.474 241.36ZM675.074 235.32C675.927 235.32 676.687 235.12 677.354 234.72C678.047 234.32 678.594 233.733 678.994 232.96C679.394 232.16 679.594 231.213 679.594 230.12C679.594 229.027 679.394 228.107 678.994 227.36C678.594 226.587 678.047 226 677.354 225.6C676.687 225.2 675.927 225 675.074 225C674.194 225 673.407 225.2 672.714 225.6C672.047 226 671.514 226.587 671.114 227.36C670.714 228.107 670.514 229.027 670.514 230.12C670.514 231.213 670.714 232.16 671.114 232.96C671.514 233.733 672.047 234.32 672.714 234.72C673.407 235.12 674.194 235.32 675.074 235.32ZM679.834 241V237.28L679.874 230.12L679.474 222.96V211.32H687.074V241H679.834ZM702.843 241.36C700.47 241.36 698.363 240.88 696.523 239.92C694.683 238.96 693.23 237.64 692.163 235.96C691.123 234.253 690.603 232.307 690.603 230.12C690.603 227.933 691.123 226 692.163 224.32C693.23 222.64 694.683 221.333 696.523 220.4C698.363 219.44 700.47 218.96 702.843 218.96C705.217 218.96 707.323 219.44 709.163 220.4C711.03 221.333 712.483 222.64 713.523 224.32C714.563 226 715.083 227.933 715.083 230.12C715.083 232.307 714.563 234.253 713.523 235.96C712.483 237.64 711.03 238.96 709.163 239.92C707.323 240.88 705.217 241.36 702.843 241.36ZM702.843 235.32C703.723 235.32 704.497 235.12 705.163 234.72C705.857 234.32 706.403 233.733 706.803 232.96C707.203 232.16 707.403 231.213 707.403 230.12C707.403 229.027 707.203 228.107 706.803 227.36C706.403 226.587 705.857 226 705.163 225.6C704.497 225.2 703.723 225 702.843 225C701.99 225 701.217 225.2 700.523 225.6C699.857 226 699.31 226.587 698.883 227.36C698.483 228.107 698.283 229.027 698.283 230.12C698.283 231.213 698.483 232.16 698.883 232.96C699.31 233.733 699.857 234.32 700.523 234.72C701.217 235.12 701.99 235.32 702.843 235.32ZM718.604 241V219.32H725.844V225.64L724.764 223.84C725.404 222.213 726.444 221 727.884 220.2C729.324 219.373 731.071 218.96 733.124 218.96V225.8C732.777 225.747 732.471 225.72 732.204 225.72C731.964 225.693 731.697 225.68 731.404 225.68C729.857 225.68 728.604 226.107 727.644 226.96C726.684 227.787 726.204 229.147 726.204 231.04V241H718.604ZM747.425 241.36C744.865 241.36 742.625 240.88 740.705 239.92C738.812 238.933 737.332 237.6 736.265 235.92C735.225 234.213 734.705 232.28 734.705 230.12C734.705 227.96 735.212 226.04 736.225 224.36C737.265 222.653 738.692 221.333 740.505 220.4C742.318 219.44 744.358 218.96 746.625 218.96C748.758 218.96 750.705 219.4 752.465 220.28C754.225 221.133 755.625 222.4 756.665 224.08C757.705 225.76 758.225 227.8 758.225 230.2C758.225 230.467 758.212 230.773 758.185 231.12C758.158 231.467 758.132 231.787 758.105 232.08H740.945V228.08H754.065L751.185 229.2C751.212 228.213 751.025 227.36 750.625 226.64C750.252 225.92 749.718 225.36 749.025 224.96C748.358 224.56 747.572 224.36 746.665 224.36C745.758 224.36 744.958 224.56 744.265 224.96C743.598 225.36 743.078 225.933 742.705 226.68C742.332 227.4 742.145 228.253 742.145 229.24V230.4C742.145 231.467 742.358 232.387 742.785 233.16C743.238 233.933 743.878 234.533 744.705 234.96C745.532 235.36 746.518 235.56 747.665 235.56C748.732 235.56 749.638 235.413 750.385 235.12C751.158 234.8 751.918 234.32 752.665 233.68L756.665 237.84C755.625 238.987 754.345 239.867 752.825 240.48C751.305 241.067 749.505 241.36 747.425 241.36ZM769.609 241.36C767.769 241.36 765.969 241.147 764.209 240.72C762.476 240.293 761.076 239.76 760.009 239.12L762.289 233.92C763.302 234.533 764.489 235.027 765.849 235.4C767.209 235.747 768.542 235.92 769.849 235.92C771.129 235.92 772.009 235.787 772.489 235.52C772.996 235.253 773.249 234.893 773.249 234.44C773.249 234.013 773.009 233.707 772.529 233.52C772.076 233.307 771.462 233.147 770.689 233.04C769.942 232.933 769.116 232.813 768.209 232.68C767.302 232.547 766.382 232.373 765.449 232.16C764.542 231.92 763.702 231.573 762.929 231.12C762.182 230.64 761.582 230 761.129 229.2C760.676 228.4 760.449 227.387 760.449 226.16C760.449 224.773 760.849 223.547 761.649 222.48C762.476 221.387 763.676 220.533 765.249 219.92C766.822 219.28 768.742 218.96 771.009 218.96C772.529 218.96 774.062 219.12 775.609 219.44C777.182 219.733 778.502 220.187 779.569 220.8L777.289 225.96C776.222 225.347 775.156 224.933 774.089 224.72C773.022 224.48 772.009 224.36 771.049 224.36C769.769 224.36 768.862 224.507 768.329 224.8C767.822 225.093 767.569 225.453 767.569 225.88C767.569 226.307 767.796 226.64 768.249 226.88C768.702 227.093 769.302 227.267 770.049 227.4C770.822 227.507 771.662 227.627 772.569 227.76C773.476 227.867 774.382 228.04 775.289 228.28C776.222 228.52 777.062 228.88 777.809 229.36C778.582 229.813 779.196 230.44 779.649 231.24C780.102 232.013 780.329 233.013 780.329 234.24C780.329 235.573 779.916 236.773 779.089 237.84C778.289 238.907 777.089 239.76 775.489 240.4C773.916 241.04 771.956 241.36 769.609 241.36ZM804.685 241.36C802.711 241.36 800.911 240.907 799.285 240C797.685 239.067 796.405 237.773 795.445 236.12C794.485 234.44 794.005 232.44 794.005 230.12C794.005 227.827 794.485 225.853 795.445 224.2C796.405 222.52 797.685 221.227 799.285 220.32C800.911 219.413 802.711 218.96 804.685 218.96C806.551 218.96 808.125 219.36 809.405 220.16C810.711 220.96 811.698 222.187 812.365 223.84C813.031 225.493 813.365 227.587 813.365 230.12C813.365 232.707 813.045 234.827 812.405 236.48C811.765 238.133 810.805 239.36 809.525 240.16C808.245 240.96 806.631 241.36 804.685 241.36ZM806.285 235.32C807.138 235.32 807.898 235.12 808.565 234.72C809.258 234.32 809.805 233.733 810.205 232.96C810.605 232.16 810.805 231.213 810.805 230.12C810.805 229.027 810.605 228.107 810.205 227.36C809.805 226.587 809.258 226 808.565 225.6C807.898 225.2 807.138 225 806.285 225C805.405 225 804.618 225.2 803.925 225.6C803.258 226 802.725 226.587 802.325 227.36C801.925 228.107 801.725 229.027 801.725 230.12C801.725 231.213 801.925 232.16 802.325 232.96C802.725 233.733 803.258 234.32 803.925 234.72C804.618 235.12 805.405 235.32 806.285 235.32ZM811.045 241V237.28L811.085 230.12L810.685 222.96V211.32H818.285V241H811.045ZM834.534 241.36C831.974 241.36 829.734 240.88 827.814 239.92C825.921 238.933 824.441 237.6 823.374 235.92C822.334 234.213 821.814 232.28 821.814 230.12C821.814 227.96 822.321 226.04 823.334 224.36C824.374 222.653 825.801 221.333 827.614 220.4C829.428 219.44 831.468 218.96 833.734 218.96C835.868 218.96 837.814 219.4 839.574 220.28C841.334 221.133 842.734 222.4 843.774 224.08C844.814 225.76 845.334 227.8 845.334 230.2C845.334 230.467 845.321 230.773 845.294 231.12C845.268 231.467 845.241 231.787 845.214 232.08H828.054V228.08H841.174L838.294 229.2C838.321 228.213 838.134 227.36 837.734 226.64C837.361 225.92 836.828 225.36 836.134 224.96C835.468 224.56 834.681 224.36 833.774 224.36C832.868 224.36 832.068 224.56 831.374 224.96C830.708 225.36 830.188 225.933 829.814 226.68C829.441 227.4 829.254 228.253 829.254 229.24V230.4C829.254 231.467 829.468 232.387 829.894 233.16C830.348 233.933 830.988 234.533 831.814 234.96C832.641 235.36 833.628 235.56 834.774 235.56C835.841 235.56 836.748 235.413 837.494 235.12C838.268 234.8 839.028 234.32 839.774 233.68L843.774 237.84C842.734 238.987 841.454 239.867 839.934 240.48C838.414 241.067 836.614 241.36 834.534 241.36ZM874.119 241.36C872.279 241.36 870.706 240.96 869.399 240.16C868.092 239.333 867.092 238.107 866.399 236.48C865.732 234.827 865.399 232.72 865.399 230.16C865.399 227.573 865.719 225.467 866.359 223.84C866.999 222.187 867.959 220.96 869.239 220.16C870.546 219.36 872.172 218.96 874.119 218.96C876.092 218.96 877.879 219.427 879.479 220.36C881.106 221.267 882.386 222.56 883.319 224.24C884.279 225.893 884.759 227.867 884.759 230.16C884.759 232.453 884.279 234.44 883.319 236.12C882.386 237.8 881.106 239.093 879.479 240C877.879 240.907 876.092 241.36 874.119 241.36ZM860.479 248.76V219.32H867.719V223L867.679 230.16L868.079 237.36V248.76H860.479ZM872.519 235.32C873.372 235.32 874.132 235.12 874.799 234.72C875.492 234.32 876.039 233.733 876.439 232.96C876.866 232.187 877.079 231.253 877.079 230.16C877.079 229.067 876.866 228.133 876.439 227.36C876.039 226.587 875.492 226 874.799 225.6C874.132 225.2 873.372 225 872.519 225C871.666 225 870.892 225.2 870.199 225.6C869.532 226 868.986 226.587 868.559 227.36C868.159 228.133 867.959 229.067 867.959 230.16C867.959 231.253 868.159 232.187 868.559 232.96C868.986 233.733 869.532 234.32 870.199 234.72C870.892 235.12 871.666 235.32 872.519 235.32ZM899.652 241.36C897.092 241.36 894.852 240.88 892.932 239.92C891.038 238.933 889.558 237.6 888.492 235.92C887.452 234.213 886.932 232.28 886.932 230.12C886.932 227.96 887.438 226.04 888.452 224.36C889.492 222.653 890.918 221.333 892.732 220.4C894.545 219.44 896.585 218.96 898.852 218.96C900.985 218.96 902.932 219.4 904.692 220.28C906.452 221.133 907.852 222.4 908.892 224.08C909.932 225.76 910.452 227.8 910.452 230.2C910.452 230.467 910.438 230.773 910.412 231.12C910.385 231.467 910.358 231.787 910.332 232.08H893.172V228.08H906.292L903.412 229.2C903.438 228.213 903.252 227.36 902.852 226.64C902.478 225.92 901.945 225.36 901.252 224.96C900.585 224.56 899.798 224.36 898.892 224.36C897.985 224.36 897.185 224.56 896.492 224.96C895.825 225.36 895.305 225.933 894.932 226.68C894.558 227.4 894.372 228.253 894.372 229.24V230.4C894.372 231.467 894.585 232.387 895.012 233.16C895.465 233.933 896.105 234.533 896.932 234.96C897.758 235.36 898.745 235.56 899.892 235.56C900.958 235.56 901.865 235.413 902.612 235.12C903.385 234.8 904.145 234.32 904.892 233.68L908.892 237.84C907.852 238.987 906.572 239.867 905.052 240.48C903.532 241.067 901.732 241.36 899.652 241.36ZM913.956 241V219.32H921.196V225.64L920.116 223.84C920.756 222.213 921.796 221 923.236 220.2C924.676 219.373 926.422 218.96 928.476 218.96V225.8C928.129 225.747 927.822 225.72 927.556 225.72C927.316 225.693 927.049 225.68 926.756 225.68C925.209 225.68 923.956 226.107 922.996 226.96C922.036 227.787 921.556 229.147 921.556 231.04V241H913.956ZM932.57 241V219.56C932.57 216.947 933.343 214.867 934.89 213.32C936.463 211.747 938.703 210.96 941.61 210.96C942.543 210.96 943.463 211.053 944.37 211.24C945.277 211.427 946.037 211.707 946.65 212.08L944.77 217.44C944.45 217.253 944.09 217.107 943.69 217C943.29 216.867 942.89 216.8 942.49 216.8C941.69 216.8 941.063 217.04 940.61 217.52C940.183 217.973 939.97 218.68 939.97 219.64V221.2L940.17 224.36V241H932.57ZM929.41 225.8V220.12H945.13V225.8H929.41ZM958.586 241.36C956.212 241.36 954.106 240.88 952.266 239.92C950.426 238.96 948.972 237.64 947.906 235.96C946.866 234.253 946.346 232.307 946.346 230.12C946.346 227.933 946.866 226 947.906 224.32C948.972 222.64 950.426 221.333 952.266 220.4C954.106 219.44 956.212 218.96 958.586 218.96C960.959 218.96 963.066 219.44 964.906 220.4C966.772 221.333 968.226 222.64 969.266 224.32C970.306 226 970.826 227.933 970.826 230.12C970.826 232.307 970.306 234.253 969.266 235.96C968.226 237.64 966.772 238.96 964.906 239.92C963.066 240.88 960.959 241.36 958.586 241.36ZM958.586 235.32C959.466 235.32 960.239 235.12 960.906 234.72C961.599 234.32 962.146 233.733 962.546 232.96C962.946 232.16 963.146 231.213 963.146 230.12C963.146 229.027 962.946 228.107 962.546 227.36C962.146 226.587 961.599 226 960.906 225.6C960.239 225.2 959.466 225 958.586 225C957.732 225 956.959 225.2 956.266 225.6C955.599 226 955.052 226.587 954.626 227.36C954.226 228.107 954.026 229.027 954.026 230.12C954.026 231.213 954.226 232.16 954.626 232.96C955.052 233.733 955.599 234.32 956.266 234.72C956.959 235.12 957.732 235.32 958.586 235.32ZM974.346 241V219.32H981.586V225.64L980.506 223.84C981.146 222.213 982.186 221 983.626 220.2C985.066 219.373 986.813 218.96 988.866 218.96V225.8C988.52 225.747 988.213 225.72 987.946 225.72C987.706 225.693 987.44 225.68 987.146 225.68C985.6 225.68 984.346 226.107 983.386 226.96C982.426 227.787 981.946 229.147 981.946 231.04V241H974.346ZM1020.24 218.96C1021.92 218.96 1023.42 219.307 1024.72 220C1026.06 220.667 1027.1 221.707 1027.84 223.12C1028.62 224.533 1029 226.36 1029 228.6V241H1021.4V229.84C1021.4 228.293 1021.11 227.173 1020.52 226.48C1019.94 225.76 1019.14 225.4 1018.12 225.4C1017.4 225.4 1016.75 225.573 1016.16 225.92C1015.58 226.267 1015.12 226.8 1014.8 227.52C1014.48 228.213 1014.32 229.12 1014.32 230.24V241H1006.72V229.84C1006.72 228.293 1006.43 227.173 1005.84 226.48C1005.28 225.76 1004.48 225.4 1003.44 225.4C1002.7 225.4 1002.03 225.573 1001.44 225.92C1000.88 226.267 1000.43 226.8 1000.08 227.52C999.763 228.213 999.603 229.12 999.603 230.24V241H992.003V219.32H999.243V225.36L997.803 223.64C998.603 222.093 999.696 220.933 1001.08 220.16C1002.47 219.36 1004.02 218.96 1005.72 218.96C1007.67 218.96 1009.38 219.467 1010.84 220.48C1012.34 221.467 1013.34 223.013 1013.84 225.12L1011.36 224.6C1012.14 222.84 1013.3 221.467 1014.84 220.48C1016.42 219.467 1018.22 218.96 1020.24 218.96ZM1047.04 241V236.96L1046.52 235.96V228.52C1046.52 227.32 1046.15 226.4 1045.4 225.76C1044.68 225.093 1043.52 224.76 1041.92 224.76C1040.88 224.76 1039.83 224.933 1038.76 225.28C1037.69 225.6 1036.79 226.053 1036.04 226.64L1033.48 221.48C1034.71 220.68 1036.17 220.067 1037.88 219.64C1039.61 219.187 1041.33 218.96 1043.04 218.96C1046.56 218.96 1049.28 219.773 1051.2 221.4C1053.15 223 1054.12 225.52 1054.12 228.96V241H1047.04ZM1040.64 241.36C1038.91 241.36 1037.44 241.067 1036.24 240.48C1035.04 239.893 1034.12 239.093 1033.48 238.08C1032.87 237.067 1032.56 235.933 1032.56 234.68C1032.56 233.347 1032.89 232.2 1033.56 231.24C1034.25 230.253 1035.31 229.507 1036.72 229C1038.13 228.467 1039.96 228.2 1042.2 228.2H1047.32V232.16H1043.24C1042.01 232.16 1041.15 232.36 1040.64 232.76C1040.16 233.16 1039.92 233.693 1039.92 234.36C1039.92 235.027 1040.17 235.56 1040.68 235.96C1041.19 236.36 1041.88 236.56 1042.76 236.56C1043.59 236.56 1044.33 236.36 1045 235.96C1045.69 235.533 1046.2 234.893 1046.52 234.04L1047.56 236.84C1047.16 238.333 1046.37 239.467 1045.2 240.24C1044.05 240.987 1042.53 241.36 1040.64 241.36ZM1073.04 218.96C1074.72 218.96 1076.24 219.307 1077.6 220C1078.96 220.667 1080.02 221.707 1080.8 223.12C1081.6 224.533 1082 226.36 1082 228.6V241H1074.4V229.84C1074.4 228.293 1074.08 227.173 1073.44 226.48C1072.82 225.76 1071.96 225.4 1070.84 225.4C1070.04 225.4 1069.3 225.587 1068.64 225.96C1067.97 226.307 1067.45 226.853 1067.08 227.6C1066.7 228.347 1066.52 229.32 1066.52 230.52V241H1058.92V219.32H1066.16V225.48L1064.76 223.68C1065.58 222.107 1066.72 220.933 1068.16 220.16C1069.6 219.36 1071.22 218.96 1073.04 218.96ZM1098.12 241.36C1095.72 241.36 1093.57 240.88 1091.68 239.92C1089.81 238.96 1088.35 237.64 1087.28 235.96C1086.21 234.253 1085.68 232.307 1085.68 230.12C1085.68 227.933 1086.21 226 1087.28 224.32C1088.35 222.64 1089.81 221.333 1091.68 220.4C1093.57 219.44 1095.72 218.96 1098.12 218.96C1100.57 218.96 1102.69 219.48 1104.48 220.52C1106.27 221.56 1107.53 223.027 1108.28 224.92L1102.4 227.92C1101.89 226.907 1101.27 226.173 1100.52 225.72C1099.77 225.24 1098.96 225 1098.08 225C1097.2 225 1096.4 225.2 1095.68 225.6C1094.96 226 1094.39 226.587 1093.96 227.36C1093.56 228.107 1093.36 229.027 1093.36 230.12C1093.36 231.24 1093.56 232.187 1093.96 232.96C1094.39 233.733 1094.96 234.32 1095.68 234.72C1096.4 235.12 1097.2 235.32 1098.08 235.32C1098.96 235.32 1099.77 235.093 1100.52 234.64C1101.27 234.16 1101.89 233.413 1102.4 232.4L1108.28 235.4C1107.53 237.293 1106.27 238.76 1104.48 239.8C1102.69 240.84 1100.57 241.36 1098.12 241.36ZM1122.27 241.36C1119.71 241.36 1117.47 240.88 1115.55 239.92C1113.66 238.933 1112.18 237.6 1111.11 235.92C1110.07 234.213 1109.55 232.28 1109.55 230.12C1109.55 227.96 1110.06 226.04 1111.07 224.36C1112.11 222.653 1113.54 221.333 1115.35 220.4C1117.16 219.44 1119.2 218.96 1121.47 218.96C1123.6 218.96 1125.55 219.4 1127.31 220.28C1129.07 221.133 1130.47 222.4 1131.51 224.08C1132.55 225.76 1133.07 227.8 1133.07 230.2C1133.07 230.467 1133.06 230.773 1133.03 231.12C1133 231.467 1132.98 231.787 1132.95 232.08H1115.79V228.08H1128.91L1126.03 229.2C1126.06 228.213 1125.87 227.36 1125.47 226.64C1125.1 225.92 1124.56 225.36 1123.87 224.96C1123.2 224.56 1122.42 224.36 1121.51 224.36C1120.6 224.36 1119.8 224.56 1119.11 224.96C1118.44 225.36 1117.92 225.933 1117.55 226.68C1117.18 227.4 1116.99 228.253 1116.99 229.24V230.4C1116.99 231.467 1117.2 232.387 1117.63 233.16C1118.08 233.933 1118.72 234.533 1119.55 234.96C1120.38 235.36 1121.36 235.56 1122.51 235.56C1123.58 235.56 1124.48 235.413 1125.23 235.12C1126 234.8 1126.76 234.32 1127.51 233.68L1131.51 237.84C1130.47 238.987 1129.19 239.867 1127.67 240.48C1126.15 241.067 1124.35 241.36 1122.27 241.36Z" fill="black"/>
<rect x="61" y="349" width="381" height="623" fill="#D9D9D9"/>
<rect x="1135" y="66" width="260" height="147" fill="#C94E4E"/>
<rect x="1420" y="70" width="239" height="147" fill="#C94E4E"/>
<rect x="1681" y="70" width="225" height="147" fill="#C94E4E"/>
<rect x="1468" y="349" width="381" height="623" fill="#D9D9D9"/>
<rect x="523" y="638" width="883" height="256" fill="#D9D9D9"/>
<rect x="525" y="360" width="881" height="220" fill="#D9D9D9"/>
</svg>
